<svg width="15" height="15" viewBox="0 0 15 15" fill="none" xmlns="http://www.w3.org/2000/svg">
<path d="M13.125 7.18752C13.1272 8.01244 12.9344 8.8262 12.5625 9.56252C12.1215 10.4449 11.4436 11.187 10.6047 11.7058C9.76572 12.2246 8.7989 12.4996 7.8125 12.5C6.98758 12.5022 6.17382 12.3094 5.4375 11.9375L1.875 13.125L3.0625 9.56252C2.69058 8.8262 2.49785 8.01244 2.5 7.18752C2.50038 6.20112 2.77538 5.2343 3.2942 4.39536C3.81302 3.55642 4.55516 2.8785 5.4375 2.43752C6.17382 2.0656 6.98758 1.87287 7.8125 1.87502H8.125C9.42772 1.94689 10.6582 2.49674 11.5807 3.4193C12.5033 4.34187 13.0531 5.5723 13.125 6.87502V7.18752Z" stroke="black" stroke-linecap="round" stroke-linejoin="round"/>
</svg>
